<svg version="1.1" id="Layer_1" xmlns="http://www.w3.org/2000/svg" xmlns:xlink="http://www.w3.org/1999/xlink" x="0px" y="0px"
	 width="100%" viewBox="0 0 512 512" enable-background="new 0 0 512 512" xml:space="preserve">
<path fill="#000000" opacity="1.000000" stroke="none" 
	d="
M1.000000,120.000000 
	C1.000000,80.000000 1.000000,40.500000 1.000000,1.000000 
	C171.666672,1.000000 342.333344,1.000000 513.000000,1.000000 
	C513.000000,171.666672 513.000000,342.333344 513.000000,513.000000 
	C342.333344,513.000000 171.666672,513.000000 1.000000,513.000000 
	C1.000000,382.166656 1.000000,251.333328 1.000000,120.000000 
M500.000000,269.500000 
	C499.999939,194.341202 500.003876,119.182419 499.996704,44.023624 
	C499.995209,28.074610 486.054291,14.005729 470.229309,14.004881 
	C328.077423,13.997259 185.925522,13.997272 43.773636,14.004859 
	C27.944332,14.005704 14.003921,28.071251 14.003354,44.020721 
	C13.998317,186.005966 13.998253,327.991211 14.003392,469.976440 
	C14.003979,486.191803 27.927774,499.997314 44.270710,499.997742 
	C186.089294,500.001556 327.907898,500.001587 469.726471,499.997742 
	C486.279999,499.997284 499.997467,486.162384 499.998413,469.479309 
	C500.002136,403.152863 500.000000,336.826447 500.000000,269.500000 
z"/>
<path fill="#1E0542" opacity="1.000000" stroke="none" 
	d="
M500.000000,270.000000 
	C500.000000,336.826447 500.002136,403.152863 499.998413,469.479309 
	C499.997467,486.162384 486.279999,499.997284 469.726471,499.997742 
	C327.907898,500.001587 186.089294,500.001556 44.270710,499.997742 
	C27.927774,499.997314 14.003979,486.191803 14.003392,469.976440 
	C13.998253,327.991211 13.998317,186.005966 14.003354,44.020721 
	C14.003921,28.071251 27.944332,14.005704 43.773636,14.004859 
	C185.925522,13.997272 328.077423,13.997259 470.229309,14.004881 
	C486.054291,14.005729 499.995209,28.074610 499.996704,44.023624 
	C500.003876,119.182419 499.999939,194.341202 500.000000,270.000000 
M491.001556,420.500000 
	C491.001556,399.838379 491.001587,379.176727 491.001587,358.515106 
	C491.001556,254.873688 491.006165,151.232269 490.996185,47.590843 
	C490.994812,33.317654 481.389862,23.029041 467.738220,23.024878 
	C327.272430,22.982042 186.806641,22.984186 46.340870,23.021969 
	C33.035965,23.025547 23.021162,33.137386 23.018131,46.512009 
	C22.986343,186.811172 22.986925,327.110321 23.016840,467.409485 
	C23.019743,481.030060 33.066830,490.984039 46.762234,490.986450 
	C186.894775,491.011108 327.027313,491.010498 467.159851,490.987701 
	C481.098816,490.985443 490.951141,481.009766 490.991638,466.988892 
	C491.035431,451.826050 491.001556,436.662964 491.001556,420.500000 
z"/>
<path fill="#FEFEFE" opacity="1.000000" stroke="none" 
	d="
M491.001556,421.000000 
	C491.001556,436.662964 491.035431,451.826050 490.991638,466.988892 
	C490.951141,481.009766 481.098816,490.985443 467.159851,490.987701 
	C327.027313,491.010498 186.894775,491.011108 46.762234,490.986450 
	C33.066830,490.984039 23.019743,481.030060 23.016840,467.409485 
	C22.986925,327.110321 22.986343,186.811172 23.018131,46.512009 
	C23.021162,33.137386 33.035965,23.025547 46.340870,23.021969 
	C186.806641,22.984186 327.272430,22.982042 467.738220,23.024878 
	C481.389862,23.029041 490.994812,33.317654 490.996185,47.590843 
	C491.006165,151.232269 491.001556,254.873688 491.001587,358.515106 
	C491.001587,379.176727 491.001556,399.838379 491.001556,421.000000 
M414.860474,87.569595 
	C400.317749,78.688148 384.222565,74.883255 367.493713,73.524017 
	C345.608704,71.745842 323.877930,72.402496 302.947113,80.040588 
	C266.218018,93.443802 246.993805,128.690125 257.113678,164.629959 
	C263.617798,187.728653 279.116760,203.498505 301.110992,211.687271 
	C320.657532,218.964737 341.092712,223.833374 361.055115,230.024948 
	C371.175934,233.164017 381.493469,236.075409 391.043610,240.540787 
	C401.964935,245.647293 406.150360,255.123001 404.095642,267.067871 
	C401.715881,280.902161 392.541504,289.216461 380.032867,294.002716 
	C367.464569,298.811768 354.333679,299.143921 341.143250,297.230621 
	C321.163666,294.332611 307.828491,283.160217 301.010773,264.260223 
	C299.163025,259.137878 297.891052,253.807892 296.255371,248.234299 
	C279.351593,249.884750 262.375549,251.542267 244.921783,253.246414 
	C246.015549,259.111237 246.793121,264.531830 248.053848,269.837585 
	C256.146637,303.896057 275.638000,327.941071 310.097321,337.434143 
	C340.928436,345.927673 372.080841,345.465485 402.673218,335.976135 
	C434.666748,326.052185 454.753052,300.757111 457.210449,267.548126 
	C459.811371,232.399185 444.776337,204.582855 411.654907,191.147903 
	C394.962830,184.377106 377.173431,180.332733 359.937012,174.876083 
	C346.036194,170.475418 332.023956,166.314529 318.440491,161.065536 
	C310.198822,157.880768 305.108490,151.050781 305.224915,141.657013 
	C305.339447,132.414597 310.881897,126.758675 318.718628,122.904442 
	C332.899658,115.930000 347.876648,115.669617 363.109924,117.668610 
	C381.419159,120.071266 391.783966,130.974121 395.956055,148.470810 
	C396.404022,150.349411 396.898376,152.216965 397.429962,154.322357 
	C415.137665,153.524109 432.526978,152.740219 450.135162,151.946472 
	C448.817047,124.612480 438.359680,102.920158 414.860474,87.569595 
M163.121140,346.877319 
	C164.422440,346.596771 165.726715,346.329163 167.024628,346.033813 
	C196.776215,339.262360 217.371170,321.930939 225.272705,292.196289 
	C228.729126,279.189301 229.841339,265.250793 229.955780,251.717865 
	C230.444702,193.908508 230.163925,136.092636 230.163925,78.279137 
	C230.163925,76.488853 230.163925,74.698563 230.163925,72.808289 
	C211.776688,72.808289 193.886047,72.808289 175.507126,72.808289 
	C175.507126,75.049782 175.507141,77.010399 175.507141,78.971016 
	C175.507141,135.285019 175.569992,191.599182 175.438293,247.912872 
	C175.418869,256.212891 174.909348,264.566345 173.849487,272.794983 
	C172.629181,282.269409 170.496979,291.570892 161.289124,297.111633 
	C141.058182,309.285400 116.057716,298.872620 111.071022,275.936218 
	C109.530663,268.851288 108.905136,261.567444 107.804619,253.988174 
	C90.732956,255.969635 73.661812,257.951050 55.814789,260.022491 
	C56.946442,269.639893 57.367538,278.657623 59.151897,287.397003 
	C65.321465,317.614075 82.656319,337.911499 113.152710,345.579529 
	C129.352600,349.652893 145.809204,349.271423 163.121140,346.877319 
M174.124802,388.678223 
	C174.124802,399.615997 174.124802,410.553772 174.124802,421.673645 
	C176.814819,421.673645 178.915009,421.673645 181.653412,421.673645 
	C181.653412,413.192780 181.653412,404.890076 181.653412,396.587372 
	C181.993713,396.560089 182.334015,396.532806 182.674316,396.505554 
	C184.883362,404.910522 187.092422,413.315491 189.203094,421.346130 
	C194.904358,423.262085 197.063049,421.033600 198.071213,415.929871 
	C199.433121,409.035400 201.533752,402.286835 203.317398,395.475677 
	C203.636871,395.527557 203.956345,395.579468 204.275818,395.631348 
	C204.275818,404.234558 204.275818,412.837769 204.275818,421.652527 
	C206.774765,421.652527 208.877762,421.652527 211.272614,421.652527 
	C211.272614,409.123566 211.272614,396.717102 211.272614,384.139130 
	C207.437500,384.139130 203.820892,384.139130 199.971619,384.139130 
	C197.720413,392.075104 195.482529,399.964111 192.843735,409.266479 
	C190.233902,399.830444 188.049927,391.934174 185.846893,383.968933 
	C182.819794,383.968933 180.143051,384.172363 177.511017,383.916229 
	C174.387115,383.612244 173.777176,385.142700 174.124802,388.678223 
M286.979675,406.207306 
	C285.511993,409.895813 285.312042,406.767700 285.056000,405.782349 
	C283.190094,398.600708 281.409485,391.396912 279.589020,384.148682 
	C276.302490,384.148682 273.342773,384.148682 270.261658,384.148682 
	C268.031830,392.096161 265.834473,399.927887 263.637115,407.759583 
	C263.346619,407.756165 263.056091,407.752777 262.765594,407.749390 
	C261.072510,399.893097 259.379456,392.036804 257.698639,384.237305 
	C254.920532,384.237305 252.488052,384.237305 249.768860,384.237305 
	C252.613785,396.944458 255.391281,409.350433 258.160889,421.721161 
	C261.279541,421.721161 263.918884,421.721161 266.814484,421.721161 
	C269.299286,412.873322 271.770538,404.073669 274.624420,393.911652 
	C277.317963,404.090485 279.643311,412.877838 281.976929,421.696564 
	C285.078644,421.696564 287.877075,421.696564 290.992096,421.696564 
	C293.805878,409.228485 296.601776,396.839813 299.442535,384.252319 
	C296.481659,384.252319 294.058655,384.252319 291.519318,384.252319 
	C290.005890,391.450012 288.540527,398.419250 286.979675,406.207306 
M109.507263,383.978790 
	C105.924072,383.978790 102.340881,383.978790 98.892563,383.978790 
	C98.892563,396.972839 98.892563,409.312714 98.892563,421.653381 
	C101.438171,421.653381 103.546432,421.653381 106.165329,421.653381 
	C106.165329,416.396851 106.165329,411.330170 106.165329,406.402863 
	C110.640068,405.278656 113.421158,406.907227 115.513817,410.178772 
	C116.855385,412.276123 118.621605,414.173157 119.594528,416.420959 
	C122.041817,422.075165 126.244095,422.831085 132.307770,421.287048 
	C128.358109,415.606842 124.657158,410.284332 120.996048,405.019135 
	C121.126671,404.960754 121.732315,404.690796 122.337494,404.419739 
	C127.851524,401.950256 129.896439,398.356934 129.067642,392.593811 
	C128.336655,387.510742 125.032051,384.657257 118.957153,384.142914 
	C116.148735,383.905121 113.310242,384.022461 109.507263,383.978790 
M372.022888,412.518463 
	C370.069946,410.074097 368.116974,407.629700 366.172729,405.196198 
	C366.518860,405.028290 367.105255,404.727844 367.704529,404.455688 
	C373.069427,402.019440 375.461395,398.216461 374.763550,393.221680 
	C374.007477,387.810242 370.667572,384.521118 364.565491,384.206635 
	C357.828064,383.859375 351.058899,384.127319 344.305573,384.127319 
	C344.305573,396.869843 344.305573,409.238403 344.305573,421.578796 
	C346.876556,421.578796 349.127411,421.578796 351.897888,421.578796 
	C351.897888,416.261414 351.897888,411.200012 351.897888,406.275970 
	C356.375793,405.401459 359.142639,406.997437 361.142822,410.375336 
	C362.409485,412.514435 364.230286,414.380096 365.202759,416.627930 
	C367.607910,422.187378 371.827881,422.555450 377.509918,421.406982 
	C375.657867,418.386139 374.042694,415.751678 372.022888,412.518463 
M313.297791,421.490875 
	C315.089905,421.823578 316.869263,422.324097 318.676208,422.461212 
	C328.871277,423.234802 336.741699,416.948944 337.985718,407.133972 
	C339.590454,394.472595 334.496857,385.842957 324.131317,383.661865 
	C314.323578,381.598175 305.893402,386.053467 302.933502,394.864716 
	C299.192017,406.002563 303.085480,416.613739 313.297791,421.490875 
M414.183441,384.131134 
	C407.796478,382.934540 402.716858,384.453156 398.771545,390.151672 
	C396.528839,393.390961 393.078888,395.794434 389.665833,399.059021 
	C389.665833,393.726593 389.665833,388.979614 389.665833,384.166351 
	C386.969940,384.166351 384.697327,384.166351 382.261505,384.166351 
	C382.261505,396.734833 382.261505,409.123108 382.261505,421.440796 
	C384.917542,421.440796 387.282867,421.440796 389.605499,421.440796 
	C390.482086,408.495789 390.482086,408.495789 395.988708,404.842285 
	C398.027954,408.269379 400.479034,411.513214 402.004059,415.145782 
	C404.641876,421.429077 408.952850,423.320099 415.757782,421.277008 
	C410.936218,413.696075 406.155457,406.179321 400.566956,397.392456 
	C405.107330,393.286774 409.790405,389.052032 414.183441,384.131134 
M445.668243,387.956787 
	C440.910278,382.802734 434.967285,382.434631 428.649200,383.844360 
	C423.274231,385.043640 420.127228,388.489868 419.839478,393.259003 
	C419.537994,398.255402 421.919098,401.960236 427.142487,403.928558 
	C430.553711,405.213989 434.227509,405.822876 437.592133,407.202148 
	C439.023163,407.788788 440.987305,409.666779 440.881927,410.785797 
	C440.733734,412.358948 439.195068,414.371887 437.705414,415.144257 
	C432.594757,417.793915 428.135406,415.551819 425.046082,408.969421 
	C422.925140,409.272217 420.695526,409.590546 418.450317,409.911072 
	C420.161865,419.309753 425.856262,423.302887 435.805847,422.465851 
	C443.646210,421.806244 448.314148,418.098907 448.971558,412.009430 
	C449.655304,405.675964 446.131195,401.380524 438.367493,399.102966 
	C435.342773,398.215668 432.180603,397.647186 429.322449,396.386261 
	C426.765259,395.258087 425.582703,392.350342 428.661255,391.245728 
	C431.529785,390.216492 436.979218,390.023712 438.071869,391.639954 
	C440.908203,395.835480 444.041565,395.321167 448.344849,394.582001 
	C447.559387,392.525177 446.812592,390.569611 445.668243,387.956787 
M218.137695,405.497314 
	C218.137695,410.782867 218.137695,416.068390 218.137695,421.555664 
	C228.037872,421.555664 237.423920,421.555664 246.731308,421.555664 
	C246.731308,419.322021 246.731308,417.398590 246.731308,415.002930 
	C239.717682,415.002930 232.984772,415.002930 226.407135,415.002930 
	C226.407135,411.461731 226.407135,408.412750 226.407135,404.963806 
	C232.713516,404.963806 238.636459,404.963806 244.624054,404.963806 
	C244.624054,402.792633 244.624054,401.042206 244.624054,398.724457 
	C238.342804,398.724457 232.276321,398.724457 226.288361,398.724457 
	C226.288361,395.709656 226.288361,393.268921 226.288361,390.414062 
	C232.982941,390.414062 239.419434,390.414062 245.929199,390.414062 
	C245.929199,388.083221 245.929199,386.179932 245.929199,384.288208 
	C236.592484,384.288208 227.522507,384.288208 218.137711,384.288208 
	C218.137711,391.228424 218.137711,397.863312 218.137695,405.497314 
M157.896133,389.541260 
	C157.133087,387.736420 156.370041,385.931580 155.232300,383.240448 
	C152.225296,384.064728 147.378677,384.056274 146.613251,385.819519 
	C141.551193,397.480194 137.365616,409.521362 132.848373,421.561920 
	C140.222031,422.134674 140.222031,422.134674 144.467545,413.182648 
	C148.340179,413.182648 152.339783,412.982300 156.297531,413.301300 
	C157.529022,413.400543 159.508896,414.765503 159.676147,415.790771 
	C160.698441,422.057526 164.521957,422.798370 170.096619,421.340149 
	C166.086258,410.965790 162.091904,400.632874 157.896133,389.541260 
M74.708092,405.980896 
	C79.650459,405.980896 84.592834,405.980896 89.554924,405.980896 
	C89.554924,403.335175 89.554924,401.431213 89.554924,399.135590 
	C84.326195,399.135590 79.393517,399.135590 74.251076,399.135590 
	C74.251076,396.156921 74.251076,393.574951 74.251076,390.529724 
	C80.191345,390.529724 85.945442,390.529724 91.799873,390.529724 
	C91.799873,388.150269 91.799873,386.234711 91.799873,384.309875 
	C83.180359,384.309875 74.790764,384.309875 66.406937,384.309875 
	C66.406937,396.901489 66.406937,409.155487 66.406937,421.522034 
	C69.058426,421.522034 71.427635,421.522034 74.094589,421.522034 
	C74.094589,416.361145 74.094589,411.543579 74.708092,405.980896 
z"/>
<path fill="#1F0643" opacity="1.000000" stroke="none" 
	d="
M415.164368,87.772827 
	C438.359680,102.920158 448.817047,124.612480 450.135162,151.946472 
	C432.526978,152.740219 415.137665,153.524109 397.429962,154.322357 
	C396.898376,152.216965 396.404022,150.349411 395.956055,148.470810 
	C391.783966,130.974121 381.419159,120.071266 363.109924,117.668610 
	C347.876648,115.669617 332.899658,115.930000 318.718628,122.904442 
	C310.881897,126.758675 305.339447,132.414597 305.224915,141.657013 
	C305.108490,151.050781 310.198822,157.880768 318.440491,161.065536 
	C332.023956,166.314529 346.036194,170.475418 359.937012,174.876083 
	C377.173431,180.332733 394.962830,184.377106 411.654907,191.147903 
	C444.776337,204.582855 459.811371,232.399185 457.210449,267.548126 
	C454.753052,300.757111 434.666748,326.052185 402.673218,335.976135 
	C372.080841,345.465485 340.928436,345.927673 310.097321,337.434143 
	C275.638000,327.941071 256.146637,303.896057 248.053848,269.837585 
	C246.793121,264.531830 246.015549,259.111237 244.921783,253.246414 
	C262.375549,251.542267 279.351593,249.884750 296.255371,248.234299 
	C297.891052,253.807892 299.163025,259.137878 301.010773,264.260223 
	C307.828491,283.160217 321.163666,294.332611 341.143250,297.230621 
	C354.333679,299.143921 367.464569,298.811768 380.032867,294.002716 
	C392.541504,289.216461 401.715881,280.902161 404.095642,267.067871 
	C406.150360,255.123001 401.964935,245.647293 391.043610,240.540787 
	C381.493469,236.075409 371.175934,233.164017 361.055115,230.024948 
	C341.092712,223.833374 320.657532,218.964737 301.110992,211.687271 
	C279.116760,203.498505 263.617798,187.728653 257.113678,164.629959 
	C246.993805,128.690125 266.218018,93.443802 302.947113,80.040588 
	C323.877930,72.402496 345.608704,71.745842 367.493713,73.524017 
	C384.222565,74.883255 400.317749,78.688148 415.164368,87.772827 
z"/>
<path fill="#1E0542" opacity="1.000000" stroke="none" 
	d="
M162.688797,346.923401 
	C145.809204,349.271423 129.352600,349.652893 113.152710,345.579529 
	C82.656319,337.911499 65.321465,317.614075 59.151897,287.397003 
	C57.367538,278.657623 56.946442,269.639893 55.814789,260.022491 
	C73.661812,257.951050 90.732956,255.969635 107.804619,253.988174 
	C108.905136,261.567444 109.530663,268.851288 111.071022,275.936218 
	C116.057716,298.872620 141.058182,309.285400 161.289124,297.111633 
	C170.496979,291.570892 172.629181,282.269409 173.849487,272.794983 
	C174.909348,264.566345 175.418869,256.212891 175.438293,247.912872 
	C175.569992,191.599182 175.507141,135.285019 175.507141,78.971016 
	C175.507141,77.010399 175.507126,75.049782 175.507126,72.808289 
	C193.886047,72.808289 211.776688,72.808289 230.163925,72.808289 
	C230.163925,74.698563 230.163925,76.488853 230.163925,78.279137 
	C230.163925,136.092636 230.444702,193.908508 229.955780,251.717865 
	C229.841339,265.250793 228.729126,279.189301 225.272705,292.196289 
	C217.371170,321.930939 196.776215,339.262360 167.024628,346.033813 
	C165.726715,346.329163 164.422440,346.596771 162.688797,346.923401 
z"/>
<path fill="#2D164F" opacity="1.000000" stroke="none" 
	d="
M174.124863,388.200226 
	C173.777176,385.142700 174.387115,383.612244 177.511017,383.916229 
	C180.143051,384.172363 182.819794,383.968933 185.846893,383.968933 
	C188.049927,391.934174 190.233902,399.830444 192.843735,409.266479 
	C195.482529,399.964111 197.720413,392.075104 199.971619,384.139130 
	C203.820892,384.139130 207.437500,384.139130 211.272614,384.139130 
	C211.272614,396.717102 211.272614,409.123566 211.272614,421.652527 
	C208.877762,421.652527 206.774765,421.652527 204.275818,421.652527 
	C204.275818,412.837769 204.275818,404.234558 204.275818,395.631348 
	C203.956345,395.579468 203.636871,395.527557 203.317398,395.475677 
	C201.533752,402.286835 199.433121,409.035400 198.071213,415.929871 
	C197.063049,421.033600 194.904358,423.262085 189.203094,421.346130 
	C187.092422,413.315491 184.883362,404.910522 182.674316,396.505554 
	C182.334015,396.532806 181.993713,396.560089 181.653412,396.587372 
	C181.653412,404.890076 181.653412,413.192780 181.653412,421.673645 
	C178.915009,421.673645 176.814819,421.673645 174.124802,421.673645 
	C174.124802,410.553772 174.124802,399.615997 174.124863,388.200226 
z"/>
<path fill="#250C48" opacity="1.000000" stroke="none" 
	d="
M287.027405,405.797913 
	C288.540527,398.419250 290.005890,391.450012 291.519318,384.252319 
	C294.058655,384.252319 296.481659,384.252319 299.442535,384.252319 
	C296.601776,396.839813 293.805878,409.228485 290.992096,421.696564 
	C287.877075,421.696564 285.078644,421.696564 281.976929,421.696564 
	C279.643311,412.877838 277.317963,404.090485 274.624420,393.911652 
	C271.770538,404.073669 269.299286,412.873322 266.814484,421.721161 
	C263.918884,421.721161 261.279541,421.721161 258.160889,421.721161 
	C255.391281,409.350433 252.613785,396.944458 249.768860,384.237305 
	C252.488052,384.237305 254.920532,384.237305 257.698639,384.237305 
	C259.379456,392.036804 261.072510,399.893097 262.765594,407.749390 
	C263.056091,407.752777 263.346619,407.756165 263.637115,407.759583 
	C265.834473,399.927887 268.031830,392.096161 270.261658,384.148682 
	C273.342773,384.148682 276.302490,384.148682 279.589020,384.148682 
	C281.409485,391.396912 283.190094,398.600708 285.056000,405.782349 
	C285.312042,406.767700 285.511993,409.895813 287.027405,405.797913 
z"/>
<path fill="#28114B" opacity="1.000000" stroke="none" 
	d="
M109.996323,383.978790 
	C113.310242,384.022461 116.148735,383.905121 118.957153,384.142914 
	C125.032051,384.657257 128.336655,387.510742 129.067642,392.593811 
	C129.896439,398.356934 127.851524,401.950256 122.337494,404.419739 
	C121.732315,404.690796 121.126671,404.960754 120.996048,405.019135 
	C124.657158,410.284332 128.358109,415.606842 132.307770,421.287048 
	C126.244095,422.831085 122.041817,422.075165 119.594528,416.420959 
	C118.621605,414.173157 116.855385,412.276123 115.513817,410.178772 
	C113.421158,406.907227 110.640068,405.278656 106.165329,406.402863 
	C106.165329,411.330170 106.165329,416.396851 106.165329,421.653381 
	C103.546432,421.653381 101.438171,421.653381 98.892563,421.653381 
	C98.892563,409.312714 98.892563,396.972839 98.892563,383.978790 
	C102.340881,383.978790 105.924072,383.978790 109.996323,383.978790 
M110.662727,390.472656 
	C109.227852,390.575195 107.792976,390.677734 106.372948,390.779236 
	C106.372948,394.002014 106.372948,396.771820 106.372948,400.010101 
	C109.038460,400.010101 111.490273,400.020966 113.941917,400.004822 
	C114.938873,399.998230 116.265381,400.326080 116.869278,399.819305 
	C118.567780,398.394012 120.809715,396.777893 121.172699,394.912994 
	C121.391579,393.788483 118.727486,391.604126 116.948799,390.742981 
	C115.451439,390.018005 113.361938,390.516022 110.662727,390.472656 
z"/>
<path fill="#240B47" opacity="1.000000" stroke="none" 
	d="
M372.225220,412.817841 
	C374.042694,415.751678 375.657867,418.386139 377.509918,421.406982 
	C371.827881,422.555450 367.607910,422.187378 365.202759,416.627930 
	C364.230286,414.380096 362.409485,412.514435 361.142822,410.375336 
	C359.142639,406.997437 356.375793,405.401459 351.897888,406.275970 
	C351.897888,411.200012 351.897888,416.261414 351.897888,421.578796 
	C349.127411,421.578796 346.876556,421.578796 344.305573,421.578796 
	C344.305573,409.238403 344.305573,396.869843 344.305573,384.127319 
	C351.058899,384.127319 357.828064,383.859375 364.565491,384.206635 
	C370.667572,384.521118 374.007477,387.810242 374.763550,393.221680 
	C375.461395,398.216461 373.069427,402.019440 367.704529,404.455688 
	C367.105255,404.727844 366.518860,405.028290 366.172729,405.196198 
	C368.116974,407.629700 370.069946,410.074097 372.225220,412.817841 
M367.001221,394.651733 
	C364.876984,390.159088 360.005280,389.055542 352.003387,391.287598 
	C352.003387,394.037201 352.003387,396.801666 352.003387,399.936310 
	C355.455811,399.936310 358.854828,400.461548 361.965973,399.741974 
	C363.873810,399.300751 365.340546,396.952179 367.001221,394.651733 
z"/>
<path fill="#240C47" opacity="1.000000" stroke="none" 
	d="
M312.941467,421.329956 
	C303.085480,416.613739 299.192017,406.002563 302.933502,394.864716 
	C305.893402,386.053467 314.323578,381.598175 324.131317,383.661865 
	C334.496857,385.842957 339.590454,394.472595 337.985718,407.133972 
	C336.741699,416.948944 328.871277,423.234802 318.676208,422.461212 
	C316.869263,422.324097 315.089905,421.823578 312.941467,421.329956 
M329.558624,396.283691 
	C327.603729,391.511688 323.995728,389.504181 318.926758,389.867401 
	C314.358429,390.194733 311.220032,392.781891 310.412384,396.977448 
	C309.681732,400.773224 309.723755,404.936768 310.456299,408.739471 
	C311.362885,413.445435 315.781555,416.171722 320.474426,415.992737 
	C325.130737,415.815125 329.126892,412.730469 329.838379,407.888458 
	C330.359192,404.343903 329.877350,400.651978 329.558624,396.283691 
z"/>
<path fill="#250C48" opacity="1.000000" stroke="none" 
	d="
M414.328491,384.474213 
	C409.790405,389.052032 405.107330,393.286774 400.566956,397.392456 
	C406.155457,406.179321 410.936218,413.696075 415.757782,421.277008 
	C408.952850,423.320099 404.641876,421.429077 402.004059,415.145782 
	C400.479034,411.513214 398.027954,408.269379 395.988708,404.842285 
	C390.482086,408.495789 390.482086,408.495789 389.605499,421.440796 
	C387.282867,421.440796 384.917542,421.440796 382.261505,421.440796 
	C382.261505,409.123108 382.261505,396.734833 382.261505,384.166351 
	C384.697327,384.166351 386.969940,384.166351 389.665833,384.166351 
	C389.665833,388.979614 389.665833,393.726593 389.665833,399.059021 
	C393.078888,395.794434 396.528839,393.390961 398.771545,390.151672 
	C402.716858,384.453156 407.796478,382.934540 414.328491,384.474213 
z"/>
<path fill="#250D48" opacity="1.000000" stroke="none" 
	d="
M445.867004,388.285400 
	C446.812592,390.569611 447.559387,392.525177 448.344849,394.582001 
	C444.041565,395.321167 440.908203,395.835480 438.071869,391.639954 
	C436.979218,390.023712 431.529785,390.216492 428.661255,391.245728 
	C425.582703,392.350342 426.765259,395.258087 429.322449,396.386261 
	C432.180603,397.647186 435.342773,398.215668 438.367493,399.102966 
	C446.131195,401.380524 449.655304,405.675964 448.971558,412.009430 
	C448.314148,418.098907 443.646210,421.806244 435.805847,422.465851 
	C425.856262,423.302887 420.161865,419.309753 418.450317,409.911072 
	C420.695526,409.590546 422.925140,409.272217 425.046082,408.969421 
	C428.135406,415.551819 432.594757,417.793915 437.705414,415.144257 
	C439.195068,414.371887 440.733734,412.358948 440.881927,410.785797 
	C440.987305,409.666779 439.023163,407.788788 437.592133,407.202148 
	C434.227509,405.822876 430.553711,405.213989 427.142487,403.928558 
	C421.919098,401.960236 419.537994,398.255402 419.839478,393.259003 
	C420.127228,388.489868 423.274231,385.043640 428.649200,383.844360 
	C434.967285,382.434631 440.910278,382.802734 445.867004,388.285400 
z"/>
<path fill="#29114B" opacity="1.000000" stroke="none" 
	d="
M218.137695,404.997772 
	C218.137711,397.863312 218.137711,391.228424 218.137711,384.288208 
	C227.522507,384.288208 236.592484,384.288208 245.929199,384.288208 
	C245.929199,386.179932 245.929199,388.083221 245.929199,390.414062 
	C239.419434,390.414062 232.982941,390.414062 226.288361,390.414062 
	C226.288361,393.268921 226.288361,395.709656 226.288361,398.724457 
	C232.276321,398.724457 238.342804,398.724457 244.624054,398.724457 
	C244.624054,401.042206 244.624054,402.792633 244.624054,404.963806 
	C238.636459,404.963806 232.713516,404.963806 226.407135,404.963806 
	C226.407135,408.412750 226.407135,411.461731 226.407135,415.002930 
	C232.984772,415.002930 239.717682,415.002930 246.731308,415.002930 
	C246.731308,417.398590 246.731308,419.322021 246.731308,421.555664 
	C237.423920,421.555664 228.037872,421.555664 218.137695,421.555664 
	C218.137695,416.068390 218.137695,410.782867 218.137695,404.997772 
z"/>
<path fill="#240C47" opacity="1.000000" stroke="none" 
	d="
M157.996857,389.920593 
	C162.091904,400.632874 166.086258,410.965790 170.096619,421.340149 
	C164.521957,422.798370 160.698441,422.057526 159.676147,415.790771 
	C159.508896,414.765503 157.529022,413.400543 156.297531,413.301300 
	C152.339783,412.982300 148.340179,413.182648 144.467545,413.182648 
	C140.222031,422.134674 140.222031,422.134674 132.848373,421.561920 
	C137.365616,409.521362 141.551193,397.480194 146.613251,385.819519 
	C147.378677,384.056274 152.225296,384.064728 155.232300,383.240448 
	C156.370041,385.931580 157.133087,387.736420 157.996857,389.920593 
M155.749786,406.585236 
	C154.497635,402.246002 153.245483,397.906738 151.592361,392.177979 
	C149.587418,397.814911 148.076126,402.063934 146.380676,406.830719 
	C149.719437,406.830719 152.323578,406.830719 155.749786,406.585236 
z"/>
<path fill="#2A134C" opacity="1.000000" stroke="none" 
	d="
M74.401337,406.353455 
	C74.094589,411.543579 74.094589,416.361145 74.094589,421.522034 
	C71.427635,421.522034 69.058426,421.522034 66.406937,421.522034 
	C66.406937,409.155487 66.406937,396.901489 66.406937,384.309875 
	C74.790764,384.309875 83.180359,384.309875 91.799873,384.309875 
	C91.799873,386.234711 91.799873,388.150269 91.799873,390.529724 
	C85.945442,390.529724 80.191345,390.529724 74.251076,390.529724 
	C74.251076,393.574951 74.251076,396.156921 74.251076,399.135590 
	C79.393517,399.135590 84.326195,399.135590 89.554924,399.135590 
	C89.554924,401.431213 89.554924,403.335175 89.554924,405.980896 
	C84.592834,405.980896 79.650459,405.980896 74.401337,406.353455 
z"/>
<path fill="#F0EEF2" opacity="1.000000" stroke="none" 
	d="
M111.098648,390.472656 
	C113.361938,390.516022 115.451439,390.018005 116.948799,390.742981 
	C118.727486,391.604126 121.391579,393.788483 121.172699,394.912994 
	C120.809715,396.777893 118.567780,398.394012 116.869278,399.819305 
	C116.265381,400.326080 114.938873,399.998230 113.941917,400.004822 
	C111.490273,400.020966 109.038460,400.010101 106.372948,400.010101 
	C106.372948,396.771820 106.372948,394.002014 106.372948,390.779236 
	C107.792976,390.677734 109.227852,390.575195 111.098648,390.472656 
z"/>
<path fill="#F3F2F5" opacity="1.000000" stroke="none" 
	d="
M367.003296,395.055908 
	C365.340546,396.952179 363.873810,399.300751 361.965973,399.741974 
	C358.854828,400.461548 355.455811,399.936310 352.003387,399.936310 
	C352.003387,396.801666 352.003387,394.037201 352.003387,391.287598 
	C360.005280,389.055542 364.876984,390.159088 367.003296,395.055908 
z"/>
<path fill="#FAF9FB" opacity="1.000000" stroke="none" 
	d="
M329.700500,396.654724 
	C329.877350,400.651978 330.359192,404.343903 329.838379,407.888458 
	C329.126892,412.730469 325.130737,415.815125 320.474426,415.992737 
	C315.781555,416.171722 311.362885,413.445435 310.456299,408.739471 
	C309.723755,404.936768 309.681732,400.773224 310.412384,396.977448 
	C311.220032,392.781891 314.358429,390.194733 318.926758,389.867401 
	C323.995728,389.504181 327.603729,391.511688 329.700500,396.654724 
z"/>
<path fill="#EFEDF1" opacity="1.000000" stroke="none" 
	d="
M155.338745,406.707977 
	C152.323578,406.830719 149.719437,406.830719 146.380676,406.830719 
	C148.076126,402.063934 149.587418,397.814911 151.592361,392.177979 
	C153.245483,397.906738 154.497635,402.246002 155.338745,406.707977 
z"/>
</svg>